<svg id="Capa_1" enable-background="new 0 0 512 512" height="512" viewBox="0 0 512 512" width="512" xmlns="http://www.w3.org/2000/svg" xmlns:xlink="http://www.w3.org/1999/xlink"><linearGradient id="SVGID_1_" gradientUnits="userSpaceOnUse" x1="256" x2="256" y1="512" y2="0"><stop offset="0" stop-color="#00b59c"/><stop offset="1" stop-color="#9cffac"/></linearGradient><g><g><g><path d="m126.63 176.718c6.469 5.175 15.91 4.125 21.083-2.343l108.287-135.363 108.287 135.363c5.191 6.489 14.632 7.502 21.083 2.343 6.469-5.175 7.519-14.615 2.343-21.083l-120-150.005c-2.847-3.559-7.156-5.63-11.713-5.63s-8.866 2.071-11.713 5.63l-120 150.005c-5.176 6.469-4.126 15.908 2.343 21.083zm141.083 25.911c-2.847-3.558-7.156-5.629-11.713-5.629s-8.866 2.071-11.713 5.629l-120 150c-3.603 4.503-4.305 10.671-1.807 15.869 2.498 5.197 7.754 8.502 13.52 8.502h45v120c0 8.284 6.716 15 15 15h120c8.284 0 15-6.716 15-15v-120h45c5.766 0 11.021-3.305 13.52-8.502 2.498-5.197 1.796-11.366-1.807-15.869zm48.287 144.371c-8.284 0-15 6.716-15 15v120h-90v-120c0-8.284-6.716-15-15-15h-28.791l88.791-110.988 88.791 110.988zm-48.287-241.42c-2.847-3.559-7.156-5.63-11.713-5.63s-8.866 2.071-11.713 5.63l-120 150.003c-5.176 6.469-4.126 15.908 2.343 21.083s15.91 4.125 21.083-2.343l108.287-135.361 108.287 135.361c5.191 6.489 14.632 7.502 21.083 2.343 6.469-5.175 7.519-14.615 2.343-21.083z" fill="#c70101"/></g></g></g></svg>